<svg width="375" height="233" viewBox="0 0 375 233" fill="none" xmlns="http://www.w3.org/2000/svg">
<g opacity="0.3" clip-path="url(#clip0_139_490)">
<path d="M623.047 207H816V87.8277C805.706 79.8876 792.808 75.1621 778.795 75.1621C776.647 75.1621 774.52 75.2736 772.433 75.4967C763.587 32.4093 725.42 0 679.685 0C640.758 0 607.322 23.4755 592.773 57.0307C583.644 49.2123 571.789 44.4767 558.82 44.4767C549.104 44.4767 540.005 47.1335 532.204 51.7576C529.438 51.21 526.58 50.9261 523.662 50.9261C511.646 50.9261 500.764 55.753 492.841 63.5613C480.591 47.6202 461.341 37.3377 439.679 37.3377C408.786 37.3377 382.788 58.2374 375.047 86.6514C366.151 79.6747 355.006 75.517 342.898 75.517C328.956 75.517 316.292 81.0234 306.869 90.0079C295.997 74.4421 278.732 64.3725 259.289 64.3725C250.18 64.3725 241.568 66.5933 233.848 70.5481C218.893 52.4776 196.309 40.9579 171.03 40.9579C160.523 40.9579 150.502 42.9657 141.282 46.5859C131.657 20.7477 106.783 2.34248 77.6229 2.34248C52.7793 2.34248 31.0665 15.6976 19.2324 35.6138C10.6506 30.3001 0.538929 27.2174 -10.2921 27.2174C-19.958 27.2174 -29.0565 29.6612 -37 33.971V207H623.047Z" fill="#ACDDDC"/>
</g>
<g clip-path="url(#clip1_139_490)">
<path d="M948.134 299.653V84.7477C940.944 82.6429 932.954 81.4617 924.51 81.4617C903.609 81.4617 885.372 88.6545 875.614 99.3377C866.573 95.446 855.657 93.167 843.892 93.167C837.945 93.167 832.224 93.75 826.849 94.8327C818.99 75.0867 790.756 60.4664 757.124 60.4664C745.933 60.4664 735.339 62.0867 725.904 64.9714C719.371 39.1228 683.994 19.3691 641.32 19.3691C603.018 19.3691 570.604 35.2765 559.628 57.2183C549.631 52.1682 536.971 49.1397 523.188 49.1397C502.049 49.1397 483.536 56.2416 473.265 66.8793C464.439 64.3581 454.657 62.9422 444.35 62.9422C425.121 62.9422 407.696 67.8333 394.988 75.7454C385.445 65.2666 367.59 58.2101 347.107 58.2101C324.892 58.2101 305.759 66.5159 296.98 78.4862C292.753 77.8275 288.345 77.4792 283.807 77.4792C274.575 77.4792 265.88 78.9178 258.236 81.4542C249.41 67.4018 227.78 57.4681 202.472 57.4681C183.53 57.4681 166.642 63.0407 155.642 71.7326C148.5 69.6202 140.546 68.439 132.15 68.439C123.753 68.439 115.596 69.6504 108.394 71.8083C98.8634 63.1467 83.0265 57.4681 65.0995 57.4681C58.1842 57.4681 51.5915 58.3161 45.5362 59.8531C32.279 36.2608 -3.22868 19.3691 -44.9947 19.3691C-49.1869 19.3691 -53.3073 19.5584 -57.3561 19.8916V299.653H948.134Z" fill="white"/>
</g>
<defs>
<clipPath id="clip0_139_490">
<rect width="853" height="207" fill="white" transform="translate(-37)"/>
</clipPath>
<clipPath id="clip1_139_490">
<rect width="836" height="233" fill="white" transform="translate(-23)"/>
</clipPath>
</defs>
</svg>
