<svg width="81" height="34" viewBox="0 0 81 34" fill="none" xmlns="http://www.w3.org/2000/svg">
<g clip-path="url(#clip0_1_181)">
<path d="M64.0167 0H16.9842C7.60372 0 0 7.58414 0 17.0004C0 26.4159 7.60372 34.0008 16.9842 34.0008H64.0167C73.3963 34.0008 81.0009 26.4167 81.0009 17.0004C81.0001 7.58414 73.3963 0 64.0167 0Z" fill="#0F9D58"/>
<path d="M63.5492 31.5212C71.7837 31.5212 78.4591 25.02 78.4591 17.0005C78.4591 8.98093 71.7837 2.4798 63.5492 2.4798C55.3147 2.4798 48.6393 8.98093 48.6393 17.0005C48.6393 25.02 55.3147 31.5212 63.5492 31.5212Z" fill="white"/>
<path d="M63.5913 11.5798H61.6059C61.4892 11.5798 61.4162 11.6602 61.4162 11.7893V22.0236C61.4162 22.1527 61.4892 22.2331 61.6059 22.2331H63.5913C63.7079 22.2331 63.7809 22.1527 63.7809 22.0236V11.7893C63.7809 11.6602 63.7079 11.5798 63.5913 11.5798Z" fill="#64748B"/>
<path d="M68.6613 11.7439C68.6176 11.6308 68.5589 11.5822 68.4422 11.5822H68.4375H65.8434H65.8386C65.722 11.5822 65.649 11.6627 65.649 11.7917V22.0213C65.649 22.1503 65.722 22.2308 65.8386 22.2308H65.8434H67.8138H67.8241C67.9407 22.2308 68.0137 22.1503 68.0137 22.0213V17.8982C68.0137 17.5581 68.0106 17.2546 68.0042 16.967V14.8043L68.0637 14.8824L69.2143 17.4482H69.2151L69.2159 17.4267L70.0071 19.1257C70.2404 19.6578 70.7752 20.9188 71.4307 22.0707C71.4902 22.1758 71.5331 22.2324 71.6497 22.2324H74.2478C74.3644 22.2324 74.4374 22.1519 74.4374 22.0229V11.7917C74.4374 11.6627 74.3644 11.5822 74.2478 11.5822H72.2774C72.1608 11.5822 72.0877 11.6627 72.0877 11.7917V12.7906V19.0094L72.0282 18.9314L70.8776 16.3656H70.8768" fill="#64748B"/>
<path d="M60.0783 11.5782H53.0563C52.9396 11.5782 52.8666 11.6586 52.8666 11.7877V22.022C52.8666 22.1511 52.9396 22.2315 53.0563 22.2315H55.0417C55.1584 22.2315 55.2314 22.1511 55.2314 22.022V18.8214H58.9539C59.0705 18.8214 59.1435 18.7409 59.1435 18.6119V16.6643C59.1435 16.5352 59.0705 16.4452 58.9539 16.4452L55.2314 16.4548V13.8858L59.5673 13.8994C59.6696 13.8994 59.7426 13.807 59.772 13.6947L60.2394 11.8195C60.268 11.6746 60.2093 11.5782 60.0783 11.5782Z" fill="#64748B"/>
<path d="M25.0472 22.0642C25.0472 22.1932 24.9742 22.2737 24.8576 22.2737H22.8722C22.7555 22.2737 22.6825 22.1932 22.6825 22.0642V11.7629C22.6825 11.6339 22.7555 11.5534 22.8722 11.5534H24.8576C24.9742 11.5534 25.0472 11.6339 25.0472 11.7629V22.0642Z" fill="white"/>
<path d="M29.4728 17.7061C27.4731 16.8841 26.743 16.0779 26.743 14.3207C26.743 12.209 28.1881 11.4069 30.4949 11.4069C31.3416 11.4069 32.1296 11.5678 32.8303 11.8259L33.7936 12.1803C33.9254 12.2289 33.9539 12.3094 33.9254 12.4384L33.327 13.8531C33.2834 13.9822 33.2104 14.0308 33.0937 13.9822L32.2327 13.6922C31.6487 13.4987 31.094 13.3537 30.4957 13.3537C29.6783 13.3537 29.1236 13.7408 29.1236 14.3215C29.1236 14.8855 29.576 15.1436 30.4084 15.4821L31.6344 15.9816C33.6635 16.8203 34.3936 17.6583 34.3936 19.4156C34.3936 21.6245 33.0358 22.6058 30.5536 22.6058C29.6775 22.6058 28.8895 22.5094 27.6778 22.0737L26.7144 21.7352C26.5827 21.6866 26.5541 21.6061 26.5827 21.4771L27.1668 19.8832C27.2104 19.7541 27.2834 19.7055 27.4001 19.7541L28.4222 20.0927C29.2831 20.3826 29.9259 20.4798 30.5536 20.4798C31.3416 20.4798 32.0137 20.2703 32.0137 19.4156C32.0137 18.9321 31.5027 18.5609 30.6996 18.2223L29.4728 17.7061Z" fill="white"/>
<path d="M44.4137 22.0235C44.4137 22.1526 44.3407 22.233 44.2241 22.233H42.2529C42.1363 22.233 42.0633 22.1526 42.0633 22.0235V17.8845H38.2678V22.0235C38.2678 22.1526 38.1948 22.233 38.0781 22.233H36.0927C35.976 22.233 35.903 22.1526 35.903 22.0235V11.794C35.903 11.6649 35.976 11.5845 36.0927 11.5845H38.0781C38.1948 11.5845 38.2678 11.6649 38.2678 11.794V15.6111H42.0633V11.794C42.0633 11.6649 42.1363 11.5845 42.2529 11.5845H44.2241C44.3407 11.5845 44.4137 11.6649 44.4137 11.794V22.0235Z" fill="white"/>
<path d="M21.1224 11.5813H19.1076C18.991 11.5813 18.918 11.6458 18.8886 11.7589L17.9118 15.7235C17.8348 16.0628 17.7618 16.4316 17.6935 16.8092L17.2079 19.0444L16.7167 16.9263C16.635 16.5057 16.5461 16.0939 16.4516 15.7211L16.1787 14.6075C15.9208 13.513 15.7049 12.855 15.5184 11.7749C15.5042 11.6458 15.4311 11.5813 15.3137 11.5813H15.247H12.6411H12.5744C12.4578 11.5813 12.3847 11.6458 12.3697 11.7749C12.1824 12.855 11.9673 13.513 11.7094 14.6075L11.4365 15.7211C11.342 16.0947 11.2532 16.5065 11.1714 16.9263L10.6802 19.0444L10.1946 16.8092C10.1263 16.4316 10.0525 16.062 9.97635 15.7235L8.9995 11.7589C8.97014 11.6458 8.89713 11.5813 8.78048 11.5813H6.76568C6.63395 11.5813 6.56095 11.6777 6.60539 11.8067L8.40117 19.1543C8.66383 20.2663 8.88285 20.9402 9.07251 22.0363C9.08679 22.1653 9.1598 22.2299 9.27724 22.2299H11.9491C11.9499 22.2299 11.9507 22.2291 11.9523 22.2291H12.0792C12.1959 22.2291 12.2689 22.1645 12.2982 22.0514L13.2751 18.0869C13.3521 17.7476 13.4251 17.3787 13.4933 17.0012L13.9448 14.9253L14.3964 17.0012C14.4646 17.3787 14.5384 17.7484 14.6146 18.0869L15.5914 22.0514C15.6208 22.1645 15.6938 22.2291 15.8105 22.2291H15.9374L15.9406 22.2299H18.6125C18.7291 22.2299 18.8021 22.1653 18.8172 22.0363C19.0068 20.9402 19.2259 20.2671 19.4885 19.1543L21.2843 11.8067C21.3264 11.6785 21.2534 11.5813 21.1224 11.5813Z" fill="white"/>
</g>
<defs>
<clipPath id="clip0_1_181">
<rect width="81" height="34" fill="white"/>
</clipPath>
</defs>
</svg>
